<svg width="512" height="512" viewBox="0 0 512 512" fill="none" xmlns="http://www.w3.org/2000/svg">
<g clip-path="url(#clip0_96_99)">
<path d="M369.116 452.465H175.628V398.884H258.977C275.391 398.884 288.744 385.53 288.744 369.117C288.744 352.704 275.39 339.35 258.977 339.35H145.86C129.446 339.35 116.093 352.704 116.093 369.117V452.466H59.535V285.767H142.884C159.298 285.767 172.651 272.413 172.651 256C172.651 239.587 159.297 226.233 142.884 226.233H59.535V142.887C59.535 126.473 46.181 113.12 29.768 113.12C13.355 113.12 0 126.472 0 142.886V482.232C0 498.646 13.354 512 29.767 512H369.116C385.53 512 398.883 498.646 398.883 482.233C398.883 465.82 385.531 452.465 369.116 452.465Z" fill="#45474B"/>
<path d="M482.233 0H29.767C13.354 0 0 13.354 0 29.767C0 46.18 13.354 59.534 29.767 59.534H113.116V142.883C113.116 159.297 126.47 172.65 142.883 172.65C159.296 172.65 172.65 159.296 172.65 142.883V59.535H339.348V142.884C339.348 159.298 352.702 172.651 369.115 172.651H452.464V226.228H285.767V148.508C285.767 132.094 272.413 118.741 256 118.741C239.587 118.741 226.233 132.095 226.233 148.508V255.996C226.233 272.41 239.587 285.763 256 285.763H339.349V369.112C339.349 385.526 352.703 398.879 369.116 398.879C385.529 398.879 398.883 385.525 398.883 369.112V285.763H452.464V482.233C452.464 498.647 465.818 512 482.231 512C498.644 512 512 498.646 512 482.233V29.767C512 13.354 498.646 0 482.233 0ZM452.465 113.116H398.884V59.535H452.465V113.116Z" fill="#45474B"/>
<path d="M260.5 67.875C280.889 67.8752 297.416 84.4035 297.416 104.792C297.416 119.141 289.23 131.587 277.251 137.699L272.394 140.178L275.283 144.802C278.515 149.974 282.122 156.438 286.533 164.347L324.036 231.594C327.541 237.877 330.353 242.932 332.984 246.678C335.642 250.463 338.509 253.508 342.397 255.221L342.399 255.222C346.204 256.896 350.399 257.481 354.518 256.912H354.52C358.727 256.329 362.322 254.187 365.92 251.275C369.481 248.394 373.577 244.304 378.68 239.221L378.681 239.222C392.369 225.589 400.786 217.254 406.994 213.422L411.989 210.34L408.152 205.898C404.147 201.262 401.729 195.232 401.729 188.625C401.729 174.024 413.566 162.188 428.166 162.188C442.767 162.188 454.604 174.024 454.604 188.625C454.604 203.224 442.771 215.057 428.174 215.062L427.823 215.061L422.076 215.028L422.84 220.725C423.3 224.16 423.262 228.869 422.805 235.323C422.464 240.131 421.907 245.725 421.216 252.257L420.484 259.105L416.64 294.833C414.679 313.063 413.038 330.295 411.115 346.052H109.884C107.962 330.295 106.321 313.063 104.361 294.833L100.518 259.105C99.4892 249.543 98.6497 241.733 98.1956 235.323C97.7383 228.869 97.7002 224.161 98.1604 220.725L98.9231 215.028L93.176 215.061L92.8245 215.062C78.2274 215.057 66.3958 203.223 66.3958 188.625C66.3958 174.024 78.2322 162.188 92.8333 162.188C107.434 162.188 119.271 174.024 119.271 188.625C119.271 195.232 116.854 201.262 112.849 205.897L109.012 210.339L114.005 213.421C120.213 217.253 128.633 225.589 142.319 239.221C147.421 244.304 151.519 248.394 155.079 251.275C158.678 254.187 162.272 256.329 166.48 256.912H166.482C170.6 257.481 174.797 256.896 178.602 255.221H178.604C182.491 253.507 185.358 250.462 188.016 246.677C190.646 242.932 193.459 237.877 196.963 231.594L234.467 164.347L234.466 164.346C238.878 156.437 242.486 149.975 245.717 144.802L248.606 140.178L243.748 137.699C231.77 131.587 223.583 119.141 223.583 104.792C223.583 84.4034 240.111 67.875 260.5 67.875Z" fill="#DA4E20" stroke="#FFD714" stroke-width="10"/>
<path d="M404.065 387.49C400.313 402.328 395.473 412.812 388.949 418.652C380.081 426.59 368.818 430.796 352.011 432.947C335.064 435.115 313.152 435.125 283.301 435.125H237.699C207.848 435.125 185.935 435.115 168.989 432.947C152.181 430.796 140.919 426.59 132.05 418.652C125.528 412.812 120.687 402.327 116.935 387.49H404.065Z" fill="#DA4E20" stroke="#FFD714" stroke-width="10"/>
</g>
<defs>
<clipPath id="clip0_96_99">
<rect width="512" height="512" fill="white"/>
</clipPath>
</defs>
</svg>
