<svg width="864" height="864" viewBox="0 0 864 864" fill="none" xmlns="http://www.w3.org/2000/svg">
<g clip-path="url(#clip0_15_659)">
<rect width="864" height="864" fill="white"/>
<rect x="199.141" width="664.859" height="56.8976" fill="#45474B"/>
<rect x="864" y="56.8976" width="807.102" height="56.8975" transform="rotate(90 864 56.8976)" fill="#45474B"/>
<rect x="56.8975" y="56.8976" width="807.102" height="56.8975" transform="rotate(90 56.8975 56.8976)" fill="#45474B"/>
<rect x="162.263" y="102.205" width="302.4" height="56.8975" transform="rotate(90 162.263 102.205)" fill="#45474B"/>
<rect x="513.132" y="102.205" width="302.4" height="56.8975" transform="rotate(90 513.132 102.205)" fill="#45474B"/>
<rect x="513.132" y="457.288" width="302.4" height="56.8975" transform="rotate(90 513.132 457.288)" fill="#45474B"/>
<rect x="404.605" y="457.288" width="179.122" height="56.8976" transform="rotate(90 404.605 457.288)" fill="#45474B"/>
<rect x="162.263" y="579.512" width="180.176" height="56.8976" transform="rotate(90 162.263 579.512)" fill="#45474B"/>
<rect x="282.38" y="102.205" width="302.4" height="56.8975" transform="rotate(90 282.38 102.205)" fill="#45474B"/>
<rect x="404.605" y="159.102" width="299.239" height="56.8975" transform="rotate(-180 404.605 159.102)" fill="#45474B"/>
<rect x="755.473" y="159.102" width="299.239" height="56.8975" transform="rotate(-180 755.473 159.102)" fill="#45474B"/>
<rect x="755.473" y="514.185" width="299.239" height="56.8975" transform="rotate(-180 755.473 514.185)" fill="#45474B"/>
<rect x="404.605" y="514.185" width="299.239" height="56.8975" transform="rotate(-180 404.605 514.185)" fill="#45474B"/>
<rect x="755.473" y="281.327" width="299.239" height="56.8975" transform="rotate(-180 755.473 281.327)" fill="#45474B"/>
<rect x="755.473" y="636.41" width="299.239" height="56.8975" transform="rotate(-180 755.473 636.41)" fill="#45474B"/>
<rect x="404.605" y="636.41" width="299.239" height="56.8975" transform="rotate(-180 404.605 636.41)" fill="#45474B"/>
<rect x="755.473" y="759.688" width="299.239" height="56.8975" transform="rotate(-180 755.473 759.688)" fill="#45474B"/>
<rect x="404.605" y="759.688" width="299.239" height="56.8975" transform="rotate(-180 404.605 759.688)" fill="#45474B"/>
<rect x="404.605" y="102.205" width="302.4" height="56.8975" transform="rotate(90 404.605 102.205)" fill="#45474B"/>
<rect x="755.473" y="102.205" width="302.4" height="56.8975" transform="rotate(90 755.473 102.205)" fill="#45474B"/>
<rect x="807.103" y="864" width="85.3464" height="56.8976" transform="rotate(-180 807.103 864)" fill="#45474B"/>
<rect x="142.244" y="56.8976" width="142.244" height="56.8975" transform="rotate(-180 142.244 56.8976)" fill="#45474B"/>
<rect x="664.858" y="864" width="664.859" height="56.8975" transform="rotate(-180 664.858 864)" fill="#45474B"/>
</g>
<defs>
<clipPath id="clip0_15_659">
<rect width="864" height="864" fill="white"/>
</clipPath>
</defs>
</svg>
