<svg width="516" height="512" viewBox="0 0 516 512" fill="none" xmlns="http://www.w3.org/2000/svg">
<g clip-path="url(#clip0_96_99)">
<path d="M369.116 452.465H175.628V398.884H258.977C275.391 398.884 288.744 385.53 288.744 369.117C288.744 352.704 275.39 339.35 258.977 339.35H145.86C129.446 339.35 116.093 352.704 116.093 369.117V452.466H59.535V285.767H142.884C159.298 285.767 172.651 272.413 172.651 256C172.651 239.587 159.297 226.233 142.884 226.233H59.535V142.887C59.535 126.473 46.181 113.12 29.768 113.12C13.355 113.12 0 126.472 0 142.886V482.232C0 498.646 13.354 512 29.767 512H369.116C385.53 512 398.883 498.646 398.883 482.233C398.883 465.82 385.531 452.465 369.116 452.465Z" fill="#45474B"/>
<path d="M482.233 0H29.767C13.354 0 0 13.354 0 29.767C0 46.18 13.354 59.534 29.767 59.534H113.116V142.883C113.116 159.297 126.47 172.65 142.883 172.65C159.296 172.65 172.65 159.296 172.65 142.883V59.535H339.348V142.884C339.348 159.298 352.702 172.651 369.115 172.651H452.464V226.228H285.767V148.508C285.767 132.094 272.413 118.741 256 118.741C239.587 118.741 226.233 132.095 226.233 148.508V255.996C226.233 272.41 239.587 285.763 256 285.763H339.349V369.112C339.349 385.526 352.703 398.879 369.116 398.879C385.529 398.879 398.883 385.525 398.883 369.112V285.763H452.464V482.233C452.464 498.647 465.818 512 482.231 512C498.644 512 512 498.646 512 482.233V29.767C512 13.354 498.646 0 482.233 0ZM452.465 113.116H398.884V59.535H452.465V113.116Z" fill="#45474B"/>
</g>
<g filter="url(#filter0_d_96_99)">
<path d="M280 232H110.001L80.0006 262L136.716 318.716L11.7163 443.716L68.2848 500.284L193.285 375.284L250 432L280 402V232Z" fill="#3290E0"/>
<path d="M275 237V399.929L250 424.929L196.821 371.749L193.285 368.213L189.75 371.749L68.2847 493.212L18.7866 443.716L140.251 322.251L143.788 318.716L140.251 315.181L87.0708 262L112.072 237H275Z" stroke="#B9FAFF" stroke-width="10"/>
</g>
<path d="M503.776 54.1543C498.445 48.1146 490.859 44.6522 482.963 44.6522H455.969C454.615 25.4583 441.58 28.1262 436.503 28.1262C431.146 28.1262 365 28.1262 365 28.1262C365 28.1262 298.856 28.1262 293.498 28.1262C288.421 28.1262 275.383 25.4589 274.03 44.6522H247.036C239.141 44.6522 231.555 48.1158 226.223 54.1543C219.759 61.4755 216.97 72.0409 218.341 83.9549C218.595 89.2477 221.268 116.435 249.4 135.772C263.697 145.599 277.438 150.61 289.939 153.159C292.679 153.751 295.45 154.283 298.291 154.698C298.33 154.742 298.369 154.786 298.409 154.829C356.898 216.369 349.755 180.768 349.755 237.178C349.755 259.047 319.453 251.968 319.453 268.754C319.453 285.539 295.836 271.725 298.022 291.64C299.361 303.848 335.529 313 365.001 313C394.472 313 430.642 303.847 431.981 291.64C434.166 271.725 410.547 285.539 410.547 268.754C410.547 251.968 380.247 259.047 380.247 237.178C380.247 180.767 373.104 216.369 431.594 154.829C431.674 154.744 431.749 154.653 431.829 154.567C446.394 152.681 463.099 147.805 480.602 135.773C508.732 116.436 511.405 89.2483 511.659 83.9555C513.03 72.0409 510.24 61.4743 503.776 54.1543ZM488.58 81.6068L488.474 82.1763L488.488 82.9531C488.433 84.4602 487.336 102.999 467.46 116.662C462.024 120.4 456.764 123.232 451.649 125.432C450.492 125.901 449.338 126.37 448.155 126.778C455.139 107.115 456.273 85.1215 456.293 67.843H482.963C483.857 67.843 485.177 68.1312 486.388 69.501C488.451 71.8377 489.25 76.2492 488.58 81.6068ZM348.643 140.728C346.458 143.483 343.224 144.919 339.962 144.919C337.552 144.919 335.125 144.136 333.09 142.522C305.309 120.493 302.982 90.2518 302.982 63.6364C302.982 57.5244 307.939 52.5692 314.052 52.5692C320.165 52.5692 325.121 57.5244 325.121 63.6364C325.121 86.9891 326.784 109.268 346.848 125.179C351.638 128.978 352.441 135.939 348.643 140.728ZM262.54 116.662C242.681 103.012 241.567 84.4952 241.51 82.9577L241.523 82.4295L241.419 81.6062C240.749 76.2497 241.548 71.8371 243.612 69.5004C244.822 68.1306 246.142 67.8424 247.036 67.8424H273.705C273.723 82.5931 274.586 100.772 279.172 118.012C279.937 120.985 280.784 123.94 281.781 126.845C275.6 124.508 269.197 121.239 262.54 116.662Z" fill="#DA4E20" stroke="#FFD714" stroke-width="7"/>
<defs>
<filter id="filter0_d_96_99" x="7.71631" y="232" width="276.284" height="276.284" filterUnits="userSpaceOnUse" color-interpolation-filters="sRGB">
<feFlood flood-opacity="0" result="BackgroundImageFix"/>
<feColorMatrix in="SourceAlpha" type="matrix" values="0 0 0 0 0 0 0 0 0 0 0 0 0 0 0 0 0 0 127 0" result="hardAlpha"/>
<feOffset dy="4"/>
<feGaussianBlur stdDeviation="2"/>
<feComposite in2="hardAlpha" operator="out"/>
<feColorMatrix type="matrix" values="0 0 0 0 0 0 0 0 0 0 0 0 0 0 0 0 0 0 0.25 0"/>
<feBlend mode="normal" in2="BackgroundImageFix" result="effect1_dropShadow_96_99"/>
<feBlend mode="normal" in="SourceGraphic" in2="effect1_dropShadow_96_99" result="shape"/>
</filter>
<clipPath id="clip0_96_99">
<rect width="512" height="512" fill="white"/>
</clipPath>
</defs>
</svg>
