<svg width="2404" height="1262" viewBox="0 0 2404 1262" fill="none" xmlns="http://www.w3.org/2000/svg">
<path d="M91.8228 3L3 86.7" stroke="#C2A30D" stroke-opacity="0.82" stroke-width="7"/>
<path d="M91.8228 3L180.646 86.7" stroke="#C2A30D" stroke-opacity="0.82" stroke-width="7"/>
<path d="M269.468 3L180.646 86.7" stroke="#C2A30D" stroke-opacity="0.82" stroke-width="7"/>
<path d="M269.468 3L358.291 86.7" stroke="#C2A30D" stroke-opacity="0.82" stroke-width="7"/>
<path d="M358.291 3L447.114 86.7" stroke="#C2A30D" stroke-opacity="0.82" stroke-width="7"/>
<path d="M447.114 3L535.937 86.7" stroke="#C2A30D" stroke-opacity="0.82" stroke-width="7"/>
<path d="M535.937 3L624.76 86.7" stroke="#C2A30D" stroke-opacity="0.82" stroke-width="7"/>
<path d="M713.582 3L624.76 86.7" stroke="#C2A30D" stroke-opacity="0.82" stroke-width="7"/>
<path d="M713.582 3L802.405 86.7" stroke="#C2A30D" stroke-opacity="0.82" stroke-width="7"/>
<path d="M891.228 3L802.405 86.7" stroke="#C2A30D" stroke-opacity="0.82" stroke-width="7"/>
<path d="M980.051 3L891.228 86.7" stroke="#C2A30D" stroke-opacity="0.82" stroke-width="7"/>
<path d="M1068.87 3L980.051 86.7" stroke="#C2A30D" stroke-opacity="0.82" stroke-width="7"/>
<path d="M1157.7 3L1068.87 86.7" stroke="#C2A30D" stroke-opacity="0.82" stroke-width="7"/>
<path d="M1246.52 3L1157.7 86.7" stroke="#C2A30D" stroke-opacity="0.82" stroke-width="7"/>
<path d="M1246.52 3L1335.34 86.7" stroke="#C2A30D" stroke-opacity="0.82" stroke-width="7"/>
<path d="M1335.34 3L1424.16 86.7" stroke="#C2A30D" stroke-opacity="0.82" stroke-width="7"/>
<path d="M1512.99 3L1424.16 86.7" stroke="#C2A30D" stroke-opacity="0.82" stroke-width="7"/>
<path d="M1601.81 3L1512.99 86.7" stroke="#C2A30D" stroke-opacity="0.82" stroke-width="7"/>
<path d="M1601.81 3L1690.63 86.7" stroke="#C2A30D" stroke-opacity="0.82" stroke-width="7"/>
<path d="M1690.63 3L1779.46 86.7" stroke="#C2A30D" stroke-opacity="0.82" stroke-width="7"/>
<path d="M1779.46 3L1868.28 86.7" stroke="#C2A30D" stroke-opacity="0.82" stroke-width="7"/>
<path d="M1957.1 3L1868.28 86.7" stroke="#C2A30D" stroke-opacity="0.82" stroke-width="7"/>
<path d="M1957.1 3L2045.92 86.7" stroke="#C2A30D" stroke-opacity="0.82" stroke-width="7"/>
<path d="M2045.92 3L2134.75 86.7" stroke="#C2A30D" stroke-opacity="0.82" stroke-width="7"/>
<path d="M2223.57 3L2134.75 86.7" stroke="#C2A30D" stroke-opacity="0.82" stroke-width="7"/>
<path d="M2312.39 3L2223.57 86.7" stroke="#C2A30D" stroke-opacity="0.82" stroke-width="7"/>
<path d="M2312.39 3L2401.22 86.7" stroke="#C2A30D" stroke-opacity="0.82" stroke-width="7"/>
<path d="M3 86.7L91.8228 170.4" stroke="#C2A30D" stroke-opacity="0.82" stroke-width="7"/>
<path d="M91.8228 86.7L180.646 170.4" stroke="#C2A30D" stroke-opacity="0.82" stroke-width="7"/>
<path d="M269.468 86.7L180.646 170.4" stroke="#C2A30D" stroke-opacity="0.82" stroke-width="7"/>
<path d="M269.468 86.7L358.291 170.4" stroke="#C2A30D" stroke-opacity="0.82" stroke-width="7"/>
<path d="M358.291 86.7L447.114 170.4" stroke="#C2A30D" stroke-opacity="0.82" stroke-width="7"/>
<path d="M447.114 86.7L535.937 170.4" stroke="#C2A30D" stroke-opacity="0.82" stroke-width="7"/>
<path d="M624.76 86.7L535.937 170.4" stroke="#C2A30D" stroke-opacity="0.82" stroke-width="7"/>
<path d="M624.76 86.7L713.582 170.4" stroke="#C2A30D" stroke-opacity="0.82" stroke-width="7"/>
<path d="M802.405 86.7L713.582 170.4" stroke="#C2A30D" stroke-opacity="0.82" stroke-width="7"/>
<path d="M802.405 86.7L891.228 170.4" stroke="#C2A30D" stroke-opacity="0.82" stroke-width="7"/>
<path d="M891.228 86.7L980.051 170.4" stroke="#C2A30D" stroke-opacity="0.82" stroke-width="7"/>
<path d="M1068.87 86.7L980.051 170.4" stroke="#C2A30D" stroke-opacity="0.82" stroke-width="7"/>
<path d="M1068.87 86.7L1157.7 170.4" stroke="#C2A30D" stroke-opacity="0.82" stroke-width="7"/>
<path d="M1246.52 86.7L1157.7 170.4" stroke="#C2A30D" stroke-opacity="0.82" stroke-width="7"/>
<path d="M1246.52 86.7L1335.34 170.4" stroke="#C2A30D" stroke-opacity="0.82" stroke-width="7"/>
<path d="M1335.34 86.7L1424.16 170.4" stroke="#C2A30D" stroke-opacity="0.82" stroke-width="7"/>
<path d="M1424.16 86.7L1512.99 170.4" stroke="#C2A30D" stroke-opacity="0.82" stroke-width="7"/>
<path d="M1512.99 86.7L1601.81 170.4" stroke="#C2A30D" stroke-opacity="0.82" stroke-width="7"/>
<path d="M1601.81 86.7L1690.63 170.4" stroke="#C2A30D" stroke-opacity="0.82" stroke-width="7"/>
<path d="M1690.63 86.7L1779.46 170.4" stroke="#C2A30D" stroke-opacity="0.82" stroke-width="7"/>
<path d="M1779.46 86.7L1868.28 170.4" stroke="#C2A30D" stroke-opacity="0.82" stroke-width="7"/>
<path d="M1868.28 86.7L1957.1 170.4" stroke="#C2A30D" stroke-opacity="0.82" stroke-width="7"/>
<path d="M1957.1 86.7L2045.92 170.4" stroke="#C2A30D" stroke-opacity="0.82" stroke-width="7"/>
<path d="M2045.92 86.7L2134.75 170.4" stroke="#C2A30D" stroke-opacity="0.82" stroke-width="7"/>
<path d="M2134.75 86.7L2223.57 170.4" stroke="#C2A30D" stroke-opacity="0.82" stroke-width="7"/>
<path d="M2312.39 86.7L2223.57 170.4" stroke="#C2A30D" stroke-opacity="0.82" stroke-width="7"/>
<path d="M2312.39 86.7L2401.22 170.4" stroke="#C2A30D" stroke-opacity="0.82" stroke-width="7"/>
<path d="M3 170.4L91.8228 254.1" stroke="#C2A30D" stroke-opacity="0.82" stroke-width="7"/>
<path d="M180.646 170.4L91.8228 254.1" stroke="#C2A30D" stroke-opacity="0.82" stroke-width="7"/>
<path d="M180.646 170.4L269.468 254.1" stroke="#C2A30D" stroke-opacity="0.82" stroke-width="7"/>
<path d="M269.468 170.4L358.291 254.1" stroke="#C2A30D" stroke-opacity="0.82" stroke-width="7"/>
<path d="M447.114 170.4L358.291 254.1" stroke="#C2A30D" stroke-opacity="0.82" stroke-width="7"/>
<path d="M447.114 170.4L535.937 254.1" stroke="#C2A30D" stroke-opacity="0.82" stroke-width="7"/>
<path d="M624.76 170.4L535.937 254.1" stroke="#C2A30D" stroke-opacity="0.82" stroke-width="7"/>
<path d="M713.582 170.4L624.76 254.1" stroke="#C2A30D" stroke-opacity="0.82" stroke-width="7"/>
<path d="M802.405 170.4L713.582 254.1" stroke="#C2A30D" stroke-opacity="0.82" stroke-width="7"/>
<path d="M802.405 170.4L891.228 254.1" stroke="#C2A30D" stroke-opacity="0.82" stroke-width="7"/>
<path d="M980.051 170.4L891.228 254.1" stroke="#C2A30D" stroke-opacity="0.82" stroke-width="7"/>
<path d="M980.051 170.4L1068.87 254.1" stroke="#C2A30D" stroke-opacity="0.82" stroke-width="7"/>
<path d="M1157.7 170.4L1068.87 254.1" stroke="#C2A30D" stroke-opacity="0.82" stroke-width="7"/>
<path d="M1157.7 170.4L1246.52 254.1" stroke="#C2A30D" stroke-opacity="0.82" stroke-width="7"/>
<path d="M1335.34 170.4L1246.52 254.1" stroke="#C2A30D" stroke-opacity="0.82" stroke-width="7"/>
<path d="M1335.34 170.4L1424.16 254.1" stroke="#C2A30D" stroke-opacity="0.82" stroke-width="7"/>
<path d="M1424.16 170.4L1512.99 254.1" stroke="#C2A30D" stroke-opacity="0.82" stroke-width="7"/>
<path d="M1601.81 170.4L1512.99 254.1" stroke="#C2A30D" stroke-opacity="0.82" stroke-width="7"/>
<path d="M1601.81 170.4L1690.63 254.1" stroke="#C2A30D" stroke-opacity="0.82" stroke-width="7"/>
<path d="M1779.46 170.4L1690.63 254.1" stroke="#C2A30D" stroke-opacity="0.82" stroke-width="7"/>
<path d="M1868.28 170.4L1779.46 254.1" stroke="#C2A30D" stroke-opacity="0.82" stroke-width="7"/>
<path d="M1957.1 170.4L1868.28 254.1" stroke="#C2A30D" stroke-opacity="0.82" stroke-width="7"/>
<path d="M1957.1 170.4L2045.92 254.1" stroke="#C2A30D" stroke-opacity="0.82" stroke-width="7"/>
<path d="M2134.75 170.4L2045.92 254.1" stroke="#C2A30D" stroke-opacity="0.82" stroke-width="7"/>
<path d="M2134.75 170.4L2223.57 254.1" stroke="#C2A30D" stroke-opacity="0.82" stroke-width="7"/>
<path d="M2312.39 170.4L2223.57 254.1" stroke="#C2A30D" stroke-opacity="0.82" stroke-width="7"/>
<path d="M2401.22 170.4L2312.39 254.1" stroke="#C2A30D" stroke-opacity="0.82" stroke-width="7"/>
<path d="M3 254.1L91.8228 337.8" stroke="#C2A30D" stroke-opacity="0.82" stroke-width="7"/>
<path d="M180.646 254.1L91.8228 337.8" stroke="#C2A30D" stroke-opacity="0.82" stroke-width="7"/>
<path d="M269.468 254.1L180.646 337.8" stroke="#C2A30D" stroke-opacity="0.82" stroke-width="7"/>
<path d="M358.291 254.1L269.468 337.8" stroke="#C2A30D" stroke-opacity="0.82" stroke-width="7"/>
<path d="M358.291 254.1L447.114 337.8" stroke="#C2A30D" stroke-opacity="0.82" stroke-width="7"/>
<path d="M447.114 254.1L535.937 337.8" stroke="#C2A30D" stroke-opacity="0.82" stroke-width="7"/>
<path d="M535.937 254.1L624.76 337.8" stroke="#C2A30D" stroke-opacity="0.82" stroke-width="7"/>
<path d="M713.582 254.1L624.76 337.8" stroke="#C2A30D" stroke-opacity="0.82" stroke-width="7"/>
<path d="M802.405 254.1L713.582 337.8" stroke="#C2A30D" stroke-opacity="0.82" stroke-width="7"/>
<path d="M891.228 254.1L802.405 337.8" stroke="#C2A30D" stroke-opacity="0.82" stroke-width="7"/>
<path d="M891.228 254.1L980.051 337.8" stroke="#C2A30D" stroke-opacity="0.82" stroke-width="7"/>
<path d="M1068.87 254.1L980.051 337.8" stroke="#C2A30D" stroke-opacity="0.82" stroke-width="7"/>
<path d="M1068.87 254.1L1157.7 337.8" stroke="#C2A30D" stroke-opacity="0.82" stroke-width="7"/>
<path d="M1246.52 254.1L1157.7 337.8" stroke="#C2A30D" stroke-opacity="0.82" stroke-width="7"/>
<path d="M1246.52 254.1L1335.34 337.8" stroke="#C2A30D" stroke-opacity="0.82" stroke-width="7"/>
<path d="M1335.34 254.1L1424.16 337.8" stroke="#C2A30D" stroke-opacity="0.82" stroke-width="7"/>
<path d="M1512.99 254.1L1424.16 337.8" stroke="#C2A30D" stroke-opacity="0.82" stroke-width="7"/>
<path d="M1601.81 254.1L1512.99 337.8" stroke="#C2A30D" stroke-opacity="0.82" stroke-width="7"/>
<path d="M1690.63 254.1L1601.81 337.8" stroke="#C2A30D" stroke-opacity="0.82" stroke-width="7"/>
<path d="M1690.63 254.1L1779.46 337.8" stroke="#C2A30D" stroke-opacity="0.82" stroke-width="7"/>
<path d="M1779.46 254.1L1868.28 337.8" stroke="#C2A30D" stroke-opacity="0.82" stroke-width="7"/>
<path d="M1957.1 254.1L1868.28 337.8" stroke="#C2A30D" stroke-opacity="0.82" stroke-width="7"/>
<path d="M2045.92 254.1L1957.1 337.8" stroke="#C2A30D" stroke-opacity="0.82" stroke-width="7"/>
<path d="M2045.92 254.1L2134.75 337.8" stroke="#C2A30D" stroke-opacity="0.82" stroke-width="7"/>
<path d="M2223.57 254.1L2134.75 337.8" stroke="#C2A30D" stroke-opacity="0.82" stroke-width="7"/>
<path d="M2312.39 254.1L2223.57 337.8" stroke="#C2A30D" stroke-opacity="0.82" stroke-width="7"/>
<path d="M2312.39 254.1L2401.22 337.8" stroke="#C2A30D" stroke-opacity="0.82" stroke-width="7"/>
<path d="M3 337.8L91.8228 421.5" stroke="#C2A30D" stroke-opacity="0.82" stroke-width="7"/>
<path d="M180.646 337.8L91.8228 421.5" stroke="#C2A30D" stroke-opacity="0.82" stroke-width="7"/>
<path d="M269.468 337.8L180.646 421.5" stroke="#C2A30D" stroke-opacity="0.82" stroke-width="7"/>
<path d="M358.291 337.8L269.468 421.5" stroke="#C2A30D" stroke-opacity="0.82" stroke-width="7"/>
<path d="M447.114 337.8L358.291 421.5" stroke="#C2A30D" stroke-opacity="0.82" stroke-width="7"/>
<path d="M447.114 337.8L535.937 421.5" stroke="#C2A30D" stroke-opacity="0.82" stroke-width="7"/>
<path d="M535.937 337.8L624.76 421.5" stroke="#C2A30D" stroke-opacity="0.82" stroke-width="7"/>
<path d="M713.582 337.8L624.76 421.5" stroke="#C2A30D" stroke-opacity="0.82" stroke-width="7"/>
<path d="M713.582 337.8L802.405 421.5" stroke="#C2A30D" stroke-opacity="0.82" stroke-width="7"/>
<path d="M891.228 337.8L802.405 421.5" stroke="#C2A30D" stroke-opacity="0.82" stroke-width="7"/>
<path d="M980.051 337.8L891.228 421.5" stroke="#C2A30D" stroke-opacity="0.82" stroke-width="7"/>
<path d="M1068.87 337.8L980.051 421.5" stroke="#C2A30D" stroke-opacity="0.82" stroke-width="7"/>
<path d="M1068.87 337.8L1157.7 421.5" stroke="#C2A30D" stroke-opacity="0.82" stroke-width="7"/>
<path d="M1246.52 337.8L1157.7 421.5" stroke="#C2A30D" stroke-opacity="0.82" stroke-width="7"/>
<path d="M1335.34 337.8L1246.52 421.5" stroke="#C2A30D" stroke-opacity="0.82" stroke-width="7"/>
<path d="M1424.16 337.8L1335.34 421.5" stroke="#C2A30D" stroke-opacity="0.82" stroke-width="7"/>
<path d="M1512.99 337.8L1424.16 421.5" stroke="#C2A30D" stroke-opacity="0.82" stroke-width="7"/>
<path d="M1512.99 337.8L1601.81 421.5" stroke="#C2A30D" stroke-opacity="0.82" stroke-width="7"/>
<path d="M1601.81 337.8L1690.63 421.5" stroke="#C2A30D" stroke-opacity="0.82" stroke-width="7"/>
<path d="M1779.46 337.8L1690.63 421.5" stroke="#C2A30D" stroke-opacity="0.82" stroke-width="7"/>
<path d="M1868.28 337.8L1779.46 421.5" stroke="#C2A30D" stroke-opacity="0.82" stroke-width="7"/>
<path d="M1868.28 337.8L1957.1 421.5" stroke="#C2A30D" stroke-opacity="0.82" stroke-width="7"/>
<path d="M1957.1 337.8L2045.92 421.5" stroke="#C2A30D" stroke-opacity="0.82" stroke-width="7"/>
<path d="M2134.75 337.8L2045.92 421.5" stroke="#C2A30D" stroke-opacity="0.82" stroke-width="7"/>
<path d="M2134.75 337.8L2223.57 421.5" stroke="#C2A30D" stroke-opacity="0.82" stroke-width="7"/>
<path d="M2223.57 337.8L2312.39 421.5" stroke="#C2A30D" stroke-opacity="0.82" stroke-width="7"/>
<path d="M2312.39 337.8L2401.22 421.5" stroke="#C2A30D" stroke-opacity="0.82" stroke-width="7"/>
<path d="M3 421.5L91.8228 505.2" stroke="#C2A30D" stroke-opacity="0.82" stroke-width="7"/>
<path d="M91.8228 421.5L180.646 505.2" stroke="#C2A30D" stroke-opacity="0.82" stroke-width="7"/>
<path d="M269.468 421.5L180.646 505.2" stroke="#C2A30D" stroke-opacity="0.82" stroke-width="7"/>
<path d="M358.291 421.5L269.468 505.2" stroke="#C2A30D" stroke-opacity="0.82" stroke-width="7"/>
<path d="M358.291 421.5L447.114 505.2" stroke="#C2A30D" stroke-opacity="0.82" stroke-width="7"/>
<path d="M535.937 421.5L447.114 505.2" stroke="#C2A30D" stroke-opacity="0.82" stroke-width="7"/>
<path d="M624.76 421.5L535.937 505.2" stroke="#C2A30D" stroke-opacity="0.82" stroke-width="7"/>
<path d="M713.582 421.5L624.76 505.2" stroke="#C2A30D" stroke-opacity="0.82" stroke-width="7"/>
<path d="M713.582 421.5L802.405 505.2" stroke="#C2A30D" stroke-opacity="0.82" stroke-width="7"/>
<path d="M802.405 421.5L891.228 505.2" stroke="#C2A30D" stroke-opacity="0.82" stroke-width="7"/>
<path d="M891.228 421.5L980.051 505.2" stroke="#C2A30D" stroke-opacity="0.82" stroke-width="7"/>
<path d="M980.051 421.5L1068.87 505.2" stroke="#C2A30D" stroke-opacity="0.82" stroke-width="7"/>
<path d="M1068.87 421.5L1157.7 505.2" stroke="#C2A30D" stroke-opacity="0.82" stroke-width="7"/>
<path d="M1246.52 421.5L1157.7 505.2" stroke="#C2A30D" stroke-opacity="0.82" stroke-width="7"/>
<path d="M1335.34 421.5L1246.52 505.2" stroke="#C2A30D" stroke-opacity="0.82" stroke-width="7"/>
<path d="M1424.16 421.5L1335.34 505.2" stroke="#C2A30D" stroke-opacity="0.82" stroke-width="7"/>
<path d="M1424.16 421.5L1512.99 505.2" stroke="#C2A30D" stroke-opacity="0.82" stroke-width="7"/>
<path d="M1512.99 421.5L1601.81 505.2" stroke="#C2A30D" stroke-opacity="0.82" stroke-width="7"/>
<path d="M1601.81 421.5L1690.63 505.2" stroke="#C2A30D" stroke-opacity="0.82" stroke-width="7"/>
<path d="M1690.63 421.5L1779.46 505.2" stroke="#C2A30D" stroke-opacity="0.82" stroke-width="7"/>
<path d="M1779.46 421.5L1868.28 505.2" stroke="#C2A30D" stroke-opacity="0.82" stroke-width="7"/>
<path d="M1868.28 421.5L1957.1 505.2" stroke="#C2A30D" stroke-opacity="0.82" stroke-width="7"/>
<path d="M1957.1 421.5L2045.92 505.2" stroke="#C2A30D" stroke-opacity="0.82" stroke-width="7"/>
<path d="M2134.75 421.5L2045.92 505.2" stroke="#C2A30D" stroke-opacity="0.82" stroke-width="7"/>
<path d="M2134.75 421.5L2223.57 505.2" stroke="#C2A30D" stroke-opacity="0.82" stroke-width="7"/>
<path d="M2223.57 421.5L2312.39 505.2" stroke="#C2A30D" stroke-opacity="0.82" stroke-width="7"/>
<path d="M2401.22 421.5L2312.39 505.2" stroke="#C2A30D" stroke-opacity="0.82" stroke-width="7"/>
<path d="M91.8228 505.2L3 588.9" stroke="#C2A30D" stroke-opacity="0.82" stroke-width="7"/>
<path d="M180.646 505.2L91.8228 588.9" stroke="#C2A30D" stroke-opacity="0.82" stroke-width="7"/>
<path d="M180.646 505.2L269.468 588.9" stroke="#C2A30D" stroke-opacity="0.82" stroke-width="7"/>
<path d="M358.291 505.2L269.468 588.9" stroke="#C2A30D" stroke-opacity="0.82" stroke-width="7"/>
<path d="M358.291 505.2L447.114 588.9" stroke="#C2A30D" stroke-opacity="0.82" stroke-width="7"/>
<path d="M535.937 505.2L447.114 588.9" stroke="#C2A30D" stroke-opacity="0.82" stroke-width="7"/>
<path d="M535.937 505.2L624.76 588.9" stroke="#C2A30D" stroke-opacity="0.82" stroke-width="7"/>
<path d="M624.76 505.2L713.582 588.9" stroke="#C2A30D" stroke-opacity="0.82" stroke-width="7"/>
<path d="M802.405 505.2L713.582 588.9" stroke="#C2A30D" stroke-opacity="0.82" stroke-width="7"/>
<path d="M891.228 505.2L802.405 588.9" stroke="#C2A30D" stroke-opacity="0.82" stroke-width="7"/>
<path d="M980.051 505.2L891.228 588.9" stroke="#C2A30D" stroke-opacity="0.82" stroke-width="7"/>
<path d="M1068.87 505.2L980.051 588.9" stroke="#C2A30D" stroke-opacity="0.82" stroke-width="7"/>
<path d="M1068.87 505.2L1157.7 588.9" stroke="#C2A30D" stroke-opacity="0.82" stroke-width="7"/>
<path d="M1157.7 505.2L1246.52 588.9" stroke="#C2A30D" stroke-opacity="0.82" stroke-width="7"/>
<path d="M1246.52 505.2L1335.34 588.9" stroke="#C2A30D" stroke-opacity="0.82" stroke-width="7"/>
<path d="M1335.34 505.2L1424.16 588.9" stroke="#C2A30D" stroke-opacity="0.82" stroke-width="7"/>
<path d="M1512.99 505.2L1424.16 588.9" stroke="#C2A30D" stroke-opacity="0.82" stroke-width="7"/>
<path d="M1512.99 505.2L1601.81 588.9" stroke="#C2A30D" stroke-opacity="0.82" stroke-width="7"/>
<path d="M1601.81 505.2L1690.63 588.9" stroke="#C2A30D" stroke-opacity="0.82" stroke-width="7"/>
<path d="M1779.46 505.2L1690.63 588.9" stroke="#C2A30D" stroke-opacity="0.82" stroke-width="7"/>
<path d="M1868.28 505.2L1779.46 588.9" stroke="#C2A30D" stroke-opacity="0.82" stroke-width="7"/>
<path d="M1868.28 505.2L1957.1 588.9" stroke="#C2A30D" stroke-opacity="0.82" stroke-width="7"/>
<path d="M2045.92 505.2L1957.1 588.9" stroke="#C2A30D" stroke-opacity="0.82" stroke-width="7"/>
<path d="M2045.92 505.2L2134.75 588.9" stroke="#C2A30D" stroke-opacity="0.82" stroke-width="7"/>
<path d="M2223.57 505.2L2134.75 588.9" stroke="#C2A30D" stroke-opacity="0.82" stroke-width="7"/>
<path d="M2223.57 505.2L2312.39 588.9" stroke="#C2A30D" stroke-opacity="0.82" stroke-width="7"/>
<path d="M2401.22 505.2L2312.39 588.9" stroke="#C2A30D" stroke-opacity="0.82" stroke-width="7"/>
<path d="M91.8228 588.9L3 672.6" stroke="#C2A30D" stroke-opacity="0.82" stroke-width="7"/>
<path d="M91.8228 588.9L180.646 672.6" stroke="#C2A30D" stroke-opacity="0.82" stroke-width="7"/>
<path d="M180.646 588.9L269.468 672.6" stroke="#C2A30D" stroke-opacity="0.82" stroke-width="7"/>
<path d="M358.291 588.9L269.468 672.6" stroke="#C2A30D" stroke-opacity="0.82" stroke-width="7"/>
<path d="M358.291 588.9L447.114 672.6" stroke="#C2A30D" stroke-opacity="0.82" stroke-width="7"/>
<path d="M447.114 588.9L535.937 672.6" stroke="#C2A30D" stroke-opacity="0.82" stroke-width="7"/>
<path d="M535.937 588.9L624.76 672.6" stroke="#C2A30D" stroke-opacity="0.82" stroke-width="7"/>
<path d="M713.582 588.9L624.76 672.6" stroke="#C2A30D" stroke-opacity="0.82" stroke-width="7"/>
<path d="M802.405 588.9L713.582 672.6" stroke="#C2A30D" stroke-opacity="0.82" stroke-width="7"/>
<path d="M802.405 588.9L891.228 672.6" stroke="#C2A30D" stroke-opacity="0.82" stroke-width="7"/>
<path d="M980.051 588.9L891.228 672.6" stroke="#C2A30D" stroke-opacity="0.82" stroke-width="7"/>
<path d="M980.051 588.9L1068.87 672.6" stroke="#C2A30D" stroke-opacity="0.82" stroke-width="7"/>
<path d="M1068.87 588.9L1157.7 672.6" stroke="#C2A30D" stroke-opacity="0.82" stroke-width="7"/>
<path d="M1246.52 588.9L1157.7 672.6" stroke="#C2A30D" stroke-opacity="0.82" stroke-width="7"/>
<path d="M1246.52 588.9L1335.34 672.6" stroke="#C2A30D" stroke-opacity="0.82" stroke-width="7"/>
<path d="M1335.34 588.9L1424.16 672.6" stroke="#C2A30D" stroke-opacity="0.82" stroke-width="7"/>
<path d="M1512.99 588.9L1424.16 672.6" stroke="#C2A30D" stroke-opacity="0.82" stroke-width="7"/>
<path d="M1512.99 588.9L1601.81 672.6" stroke="#C2A30D" stroke-opacity="0.82" stroke-width="7"/>
<path d="M1601.81 588.9L1690.63 672.6" stroke="#C2A30D" stroke-opacity="0.82" stroke-width="7"/>
<path d="M1690.63 588.9L1779.46 672.6" stroke="#C2A30D" stroke-opacity="0.82" stroke-width="7"/>
<path d="M1779.46 588.9L1868.28 672.6" stroke="#C2A30D" stroke-opacity="0.82" stroke-width="7"/>
<path d="M1957.1 588.9L1868.28 672.6" stroke="#C2A30D" stroke-opacity="0.82" stroke-width="7"/>
<path d="M2045.92 588.9L1957.1 672.6" stroke="#C2A30D" stroke-opacity="0.82" stroke-width="7"/>
<path d="M2045.92 588.9L2134.75 672.6" stroke="#C2A30D" stroke-opacity="0.82" stroke-width="7"/>
<path d="M2134.75 588.9L2223.57 672.6" stroke="#C2A30D" stroke-opacity="0.82" stroke-width="7"/>
<path d="M2223.57 588.9L2312.39 672.6" stroke="#C2A30D" stroke-opacity="0.82" stroke-width="7"/>
<path d="M2401.22 588.9L2312.39 672.6" stroke="#C2A30D" stroke-opacity="0.82" stroke-width="7"/>
<path d="M91.8228 672.6L3 756.3" stroke="#C2A30D" stroke-opacity="0.82" stroke-width="7"/>
<path d="M180.646 672.6L91.8228 756.3" stroke="#C2A30D" stroke-opacity="0.82" stroke-width="7"/>
<path d="M180.646 672.6L269.468 756.3" stroke="#C2A30D" stroke-opacity="0.82" stroke-width="7"/>
<path d="M269.468 672.6L358.291 756.3" stroke="#C2A30D" stroke-opacity="0.82" stroke-width="7"/>
<path d="M447.114 672.6L358.291 756.3" stroke="#C2A30D" stroke-opacity="0.82" stroke-width="7"/>
<path d="M535.937 672.6L447.114 756.3" stroke="#C2A30D" stroke-opacity="0.82" stroke-width="7"/>
<path d="M535.937 672.6L624.76 756.3" stroke="#C2A30D" stroke-opacity="0.82" stroke-width="7"/>
<path d="M713.582 672.6L624.76 756.3" stroke="#C2A30D" stroke-opacity="0.82" stroke-width="7"/>
<path d="M713.582 672.6L802.405 756.3" stroke="#C2A30D" stroke-opacity="0.82" stroke-width="7"/>
<path d="M802.405 672.6L891.228 756.3" stroke="#C2A30D" stroke-opacity="0.82" stroke-width="7"/>
<path d="M891.228 672.6L980.051 756.3" stroke="#C2A30D" stroke-opacity="0.82" stroke-width="7"/>
<path d="M980.051 672.6L1068.87 756.3" stroke="#C2A30D" stroke-opacity="0.82" stroke-width="7"/>
<path d="M1157.7 672.6L1068.87 756.3" stroke="#C2A30D" stroke-opacity="0.82" stroke-width="7"/>
<path d="M1157.7 672.6L1246.52 756.3" stroke="#C2A30D" stroke-opacity="0.82" stroke-width="7"/>
<path d="M1246.52 672.6L1335.34 756.3" stroke="#C2A30D" stroke-opacity="0.82" stroke-width="7"/>
<path d="M1335.34 672.6L1424.16 756.3" stroke="#C2A30D" stroke-opacity="0.82" stroke-width="7"/>
<path d="M1512.99 672.6L1424.16 756.3" stroke="#C2A30D" stroke-opacity="0.82" stroke-width="7"/>
<path d="M1601.81 672.6L1512.99 756.3" stroke="#C2A30D" stroke-opacity="0.82" stroke-width="7"/>
<path d="M1601.81 672.6L1690.63 756.3" stroke="#C2A30D" stroke-opacity="0.82" stroke-width="7"/>
<path d="M1779.46 672.6L1690.63 756.3" stroke="#C2A30D" stroke-opacity="0.82" stroke-width="7"/>
<path d="M1868.28 672.6L1779.46 756.3" stroke="#C2A30D" stroke-opacity="0.82" stroke-width="7"/>
<path d="M1957.1 672.6L1868.28 756.3" stroke="#C2A30D" stroke-opacity="0.82" stroke-width="7"/>
<path d="M2045.92 672.6L1957.1 756.3" stroke="#C2A30D" stroke-opacity="0.82" stroke-width="7"/>
<path d="M2045.92 672.6L2134.75 756.3" stroke="#C2A30D" stroke-opacity="0.82" stroke-width="7"/>
<path d="M2223.57 672.6L2134.75 756.3" stroke="#C2A30D" stroke-opacity="0.82" stroke-width="7"/>
<path d="M2312.39 672.6L2223.57 756.3" stroke="#C2A30D" stroke-opacity="0.82" stroke-width="7"/>
<path d="M2312.39 672.6L2401.22 756.3" stroke="#C2A30D" stroke-opacity="0.82" stroke-width="7"/>
<path d="M91.8228 756.3L3 840" stroke="#C2A30D" stroke-opacity="0.82" stroke-width="7"/>
<path d="M180.646 756.3L91.8228 840" stroke="#C2A30D" stroke-opacity="0.82" stroke-width="7"/>
<path d="M269.468 756.3L180.646 840" stroke="#C2A30D" stroke-opacity="0.82" stroke-width="7"/>
<path d="M358.291 756.3L269.468 840" stroke="#C2A30D" stroke-opacity="0.82" stroke-width="7"/>
<path d="M447.114 756.3L358.291 840" stroke="#C2A30D" stroke-opacity="0.82" stroke-width="7"/>
<path d="M447.114 756.3L535.937 840" stroke="#C2A30D" stroke-opacity="0.82" stroke-width="7"/>
<path d="M624.76 756.3L535.937 840" stroke="#C2A30D" stroke-opacity="0.82" stroke-width="7"/>
<path d="M713.582 756.3L624.76 840" stroke="#C2A30D" stroke-opacity="0.82" stroke-width="7"/>
<path d="M802.405 756.3L713.582 840" stroke="#C2A30D" stroke-opacity="0.82" stroke-width="7"/>
<path d="M802.405 756.3L891.228 840" stroke="#C2A30D" stroke-opacity="0.82" stroke-width="7"/>
<path d="M980.051 756.3L891.228 840" stroke="#C2A30D" stroke-opacity="0.82" stroke-width="7"/>
<path d="M1068.87 756.3L980.051 840" stroke="#C2A30D" stroke-opacity="0.82" stroke-width="7"/>
<path d="M1157.7 756.3L1068.87 840" stroke="#C2A30D" stroke-opacity="0.82" stroke-width="7"/>
<path d="M1246.52 756.3L1157.7 840" stroke="#C2A30D" stroke-opacity="0.82" stroke-width="7"/>
<path d="M1246.52 756.3L1335.34 840" stroke="#C2A30D" stroke-opacity="0.82" stroke-width="7"/>
<path d="M1335.34 756.3L1424.16 840" stroke="#C2A30D" stroke-opacity="0.82" stroke-width="7"/>
<path d="M1512.99 756.3L1424.16 840" stroke="#C2A30D" stroke-opacity="0.82" stroke-width="7"/>
<path d="M1512.99 756.3L1601.81 840" stroke="#C2A30D" stroke-opacity="0.82" stroke-width="7"/>
<path d="M1601.81 756.3L1690.63 840" stroke="#C2A30D" stroke-opacity="0.82" stroke-width="7"/>
<path d="M1779.46 756.3L1690.63 840" stroke="#C2A30D" stroke-opacity="0.82" stroke-width="7"/>
<path d="M1779.46 756.3L1868.28 840" stroke="#C2A30D" stroke-opacity="0.82" stroke-width="7"/>
<path d="M1868.28 756.3L1957.1 840" stroke="#C2A30D" stroke-opacity="0.82" stroke-width="7"/>
<path d="M1957.1 756.3L2045.92 840" stroke="#C2A30D" stroke-opacity="0.82" stroke-width="7"/>
<path d="M2045.92 756.3L2134.75 840" stroke="#C2A30D" stroke-opacity="0.82" stroke-width="7"/>
<path d="M2223.57 756.3L2134.75 840" stroke="#C2A30D" stroke-opacity="0.82" stroke-width="7"/>
<path d="M2223.57 756.3L2312.39 840" stroke="#C2A30D" stroke-opacity="0.82" stroke-width="7"/>
<path d="M2401.22 756.3L2312.39 840" stroke="#C2A30D" stroke-opacity="0.82" stroke-width="7"/>
<path d="M91.8228 840L3 923.7" stroke="#C2A30D" stroke-opacity="0.82" stroke-width="7"/>
<path d="M180.646 840L91.8228 923.7" stroke="#C2A30D" stroke-opacity="0.82" stroke-width="7"/>
<path d="M180.646 840L269.468 923.7" stroke="#C2A30D" stroke-opacity="0.82" stroke-width="7"/>
<path d="M358.291 840L269.468 923.7" stroke="#C2A30D" stroke-opacity="0.82" stroke-width="7"/>
<path d="M358.291 840L447.114 923.7" stroke="#C2A30D" stroke-opacity="0.82" stroke-width="7"/>
<path d="M447.114 840L535.937 923.7" stroke="#C2A30D" stroke-opacity="0.82" stroke-width="7"/>
<path d="M624.76 840L535.937 923.7" stroke="#C2A30D" stroke-opacity="0.82" stroke-width="7"/>
<path d="M713.582 840L624.76 923.7" stroke="#C2A30D" stroke-opacity="0.82" stroke-width="7"/>
<path d="M802.405 840L713.582 923.7" stroke="#C2A30D" stroke-opacity="0.82" stroke-width="7"/>
<path d="M891.228 840L802.405 923.7" stroke="#C2A30D" stroke-opacity="0.82" stroke-width="7"/>
<path d="M891.228 840L980.051 923.7" stroke="#C2A30D" stroke-opacity="0.82" stroke-width="7"/>
<path d="M980.051 840L1068.87 923.7" stroke="#C2A30D" stroke-opacity="0.82" stroke-width="7"/>
<path d="M1157.7 840L1068.87 923.7" stroke="#C2A30D" stroke-opacity="0.82" stroke-width="7"/>
<path d="M1157.7 840L1246.52 923.7" stroke="#C2A30D" stroke-opacity="0.82" stroke-width="7"/>
<path d="M1335.34 840L1246.52 923.7" stroke="#C2A30D" stroke-opacity="0.82" stroke-width="7"/>
<path d="M1424.16 840L1335.34 923.7" stroke="#C2A30D" stroke-opacity="0.82" stroke-width="7"/>
<path d="M1512.99 840L1424.16 923.7" stroke="#C2A30D" stroke-opacity="0.82" stroke-width="7"/>
<path d="M1512.99 840L1601.81 923.7" stroke="#C2A30D" stroke-opacity="0.82" stroke-width="7"/>
<path d="M1601.81 840L1690.63 923.7" stroke="#C2A30D" stroke-opacity="0.82" stroke-width="7"/>
<path d="M1690.63 840L1779.46 923.7" stroke="#C2A30D" stroke-opacity="0.82" stroke-width="7"/>
<path d="M1779.46 840L1868.28 923.7" stroke="#C2A30D" stroke-opacity="0.82" stroke-width="7"/>
<path d="M1868.28 840L1957.1 923.7" stroke="#C2A30D" stroke-opacity="0.82" stroke-width="7"/>
<path d="M2045.92 840L1957.1 923.7" stroke="#C2A30D" stroke-opacity="0.82" stroke-width="7"/>
<path d="M2045.92 840L2134.75 923.7" stroke="#C2A30D" stroke-opacity="0.82" stroke-width="7"/>
<path d="M2134.75 840L2223.57 923.7" stroke="#C2A30D" stroke-opacity="0.82" stroke-width="7"/>
<path d="M2223.57 840L2312.39 923.7" stroke="#C2A30D" stroke-opacity="0.82" stroke-width="7"/>
<path d="M2401.22 840L2312.39 923.7" stroke="#C2A30D" stroke-opacity="0.82" stroke-width="7"/>
<path d="M91.8228 923.7L3 1007.4" stroke="#C2A30D" stroke-opacity="0.82" stroke-width="7"/>
<path d="M91.8228 923.7L180.646 1007.4" stroke="#C2A30D" stroke-opacity="0.82" stroke-width="7"/>
<path d="M269.468 923.7L180.646 1007.4" stroke="#C2A30D" stroke-opacity="0.82" stroke-width="7"/>
<path d="M358.291 923.7L269.468 1007.4" stroke="#C2A30D" stroke-opacity="0.82" stroke-width="7"/>
<path d="M358.291 923.7L447.114 1007.4" stroke="#C2A30D" stroke-opacity="0.82" stroke-width="7"/>
<path d="M535.937 923.7L447.114 1007.4" stroke="#C2A30D" stroke-opacity="0.82" stroke-width="7"/>
<path d="M535.937 923.7L624.76 1007.4" stroke="#C2A30D" stroke-opacity="0.82" stroke-width="7"/>
<path d="M624.76 923.7L713.582 1007.4" stroke="#C2A30D" stroke-opacity="0.82" stroke-width="7"/>
<path d="M713.582 923.7L802.405 1007.4" stroke="#C2A30D" stroke-opacity="0.82" stroke-width="7"/>
<path d="M891.228 923.7L802.405 1007.4" stroke="#C2A30D" stroke-opacity="0.82" stroke-width="7"/>
<path d="M891.228 923.7L980.051 1007.4" stroke="#C2A30D" stroke-opacity="0.82" stroke-width="7"/>
<path d="M1068.87 923.7L980.051 1007.4" stroke="#C2A30D" stroke-opacity="0.82" stroke-width="7"/>
<path d="M1068.87 923.7L1157.7 1007.4" stroke="#C2A30D" stroke-opacity="0.82" stroke-width="7"/>
<path d="M1246.52 923.7L1157.7 1007.4" stroke="#C2A30D" stroke-opacity="0.82" stroke-width="7"/>
<path d="M1246.52 923.7L1335.34 1007.4" stroke="#C2A30D" stroke-opacity="0.82" stroke-width="7"/>
<path d="M1335.34 923.7L1424.16 1007.4" stroke="#C2A30D" stroke-opacity="0.82" stroke-width="7"/>
<path d="M1512.99 923.7L1424.16 1007.4" stroke="#C2A30D" stroke-opacity="0.82" stroke-width="7"/>
<path d="M1601.81 923.7L1512.99 1007.4" stroke="#C2A30D" stroke-opacity="0.82" stroke-width="7"/>
<path d="M1601.81 923.7L1690.63 1007.4" stroke="#C2A30D" stroke-opacity="0.82" stroke-width="7"/>
<path d="M1779.46 923.7L1690.63 1007.4" stroke="#C2A30D" stroke-opacity="0.82" stroke-width="7"/>
<path d="M1868.28 923.7L1779.46 1007.4" stroke="#C2A30D" stroke-opacity="0.82" stroke-width="7"/>
<path d="M1868.28 923.7L1957.1 1007.4" stroke="#C2A30D" stroke-opacity="0.82" stroke-width="7"/>
<path d="M1957.1 923.7L2045.92 1007.4" stroke="#C2A30D" stroke-opacity="0.82" stroke-width="7"/>
<path d="M2045.92 923.7L2134.75 1007.4" stroke="#C2A30D" stroke-opacity="0.82" stroke-width="7"/>
<path d="M2223.57 923.7L2134.75 1007.4" stroke="#C2A30D" stroke-opacity="0.82" stroke-width="7"/>
<path d="M2312.39 923.7L2223.57 1007.4" stroke="#C2A30D" stroke-opacity="0.82" stroke-width="7"/>
<path d="M2312.39 923.7L2401.22 1007.4" stroke="#C2A30D" stroke-opacity="0.82" stroke-width="7"/>
<path d="M3 1007.4L91.8228 1091.1" stroke="#C2A30D" stroke-opacity="0.82" stroke-width="7"/>
<path d="M91.8228 1007.4L180.646 1091.1" stroke="#C2A30D" stroke-opacity="0.82" stroke-width="7"/>
<path d="M180.646 1007.4L269.468 1091.1" stroke="#C2A30D" stroke-opacity="0.82" stroke-width="7"/>
<path d="M269.468 1007.4L358.291 1091.1" stroke="#C2A30D" stroke-opacity="0.82" stroke-width="7"/>
<path d="M447.114 1007.4L358.291 1091.1" stroke="#C2A30D" stroke-opacity="0.82" stroke-width="7"/>
<path d="M447.114 1007.4L535.937 1091.1" stroke="#C2A30D" stroke-opacity="0.82" stroke-width="7"/>
<path d="M535.937 1007.4L624.76 1091.1" stroke="#C2A30D" stroke-opacity="0.82" stroke-width="7"/>
<path d="M713.582 1007.4L624.76 1091.1" stroke="#C2A30D" stroke-opacity="0.82" stroke-width="7"/>
<path d="M713.582 1007.4L802.405 1091.1" stroke="#C2A30D" stroke-opacity="0.82" stroke-width="7"/>
<path d="M802.405 1007.4L891.228 1091.1" stroke="#C2A30D" stroke-opacity="0.82" stroke-width="7"/>
<path d="M980.051 1007.4L891.228 1091.1" stroke="#C2A30D" stroke-opacity="0.82" stroke-width="7"/>
<path d="M980.051 1007.4L1068.87 1091.1" stroke="#C2A30D" stroke-opacity="0.82" stroke-width="7"/>
<path d="M1157.7 1007.4L1068.87 1091.1" stroke="#C2A30D" stroke-opacity="0.82" stroke-width="7"/>
<path d="M1157.7 1007.4L1246.52 1091.1" stroke="#C2A30D" stroke-opacity="0.82" stroke-width="7"/>
<path d="M1246.52 1007.4L1335.34 1091.1" stroke="#C2A30D" stroke-opacity="0.82" stroke-width="7"/>
<path d="M1335.34 1007.4L1424.16 1091.1" stroke="#C2A30D" stroke-opacity="0.82" stroke-width="7"/>
<path d="M1512.99 1007.4L1424.16 1091.1" stroke="#C2A30D" stroke-opacity="0.82" stroke-width="7"/>
<path d="M1512.99 1007.4L1601.81 1091.1" stroke="#C2A30D" stroke-opacity="0.82" stroke-width="7"/>
<path d="M1690.63 1007.4L1601.81 1091.1" stroke="#C2A30D" stroke-opacity="0.82" stroke-width="7"/>
<path d="M1690.63 1007.4L1779.46 1091.1" stroke="#C2A30D" stroke-opacity="0.82" stroke-width="7"/>
<path d="M1779.46 1007.4L1868.28 1091.1" stroke="#C2A30D" stroke-opacity="0.82" stroke-width="7"/>
<path d="M1868.28 1007.4L1957.1 1091.1" stroke="#C2A30D" stroke-opacity="0.82" stroke-width="7"/>
<path d="M1957.1 1007.4L2045.92 1091.1" stroke="#C2A30D" stroke-opacity="0.82" stroke-width="7"/>
<path d="M2045.92 1007.4L2134.75 1091.1" stroke="#C2A30D" stroke-opacity="0.82" stroke-width="7"/>
<path d="M2223.57 1007.4L2134.75 1091.1" stroke="#C2A30D" stroke-opacity="0.82" stroke-width="7"/>
<path d="M2223.57 1007.4L2312.39 1091.1" stroke="#C2A30D" stroke-opacity="0.82" stroke-width="7"/>
<path d="M2312.39 1007.4L2401.22 1091.1" stroke="#C2A30D" stroke-opacity="0.82" stroke-width="7"/>
<path d="M91.8228 1091.1L3 1174.8" stroke="#C2A30D" stroke-opacity="0.82" stroke-width="7"/>
<path d="M91.8228 1091.1L180.646 1174.8" stroke="#C2A30D" stroke-opacity="0.82" stroke-width="7"/>
<path d="M180.646 1091.1L269.468 1174.8" stroke="#C2A30D" stroke-opacity="0.82" stroke-width="7"/>
<path d="M269.468 1091.1L358.291 1174.8" stroke="#C2A30D" stroke-opacity="0.82" stroke-width="7"/>
<path d="M447.114 1091.1L358.291 1174.8" stroke="#C2A30D" stroke-opacity="0.82" stroke-width="7"/>
<path d="M535.937 1091.1L447.114 1174.8" stroke="#C2A30D" stroke-opacity="0.82" stroke-width="7"/>
<path d="M535.937 1091.1L624.76 1174.8" stroke="#C2A30D" stroke-opacity="0.82" stroke-width="7"/>
<path d="M624.76 1091.1L713.582 1174.8" stroke="#C2A30D" stroke-opacity="0.82" stroke-width="7"/>
<path d="M802.405 1091.1L713.582 1174.8" stroke="#C2A30D" stroke-opacity="0.82" stroke-width="7"/>
<path d="M802.405 1091.1L891.228 1174.8" stroke="#C2A30D" stroke-opacity="0.82" stroke-width="7"/>
<path d="M891.228 1091.1L980.051 1174.8" stroke="#C2A30D" stroke-opacity="0.82" stroke-width="7"/>
<path d="M1068.87 1091.1L980.051 1174.8" stroke="#C2A30D" stroke-opacity="0.82" stroke-width="7"/>
<path d="M1068.87 1091.1L1157.7 1174.8" stroke="#C2A30D" stroke-opacity="0.82" stroke-width="7"/>
<path d="M1246.52 1091.1L1157.7 1174.8" stroke="#C2A30D" stroke-opacity="0.82" stroke-width="7"/>
<path d="M1335.34 1091.1L1246.52 1174.8" stroke="#C2A30D" stroke-opacity="0.82" stroke-width="7"/>
<path d="M1424.16 1091.1L1335.34 1174.8" stroke="#C2A30D" stroke-opacity="0.82" stroke-width="7"/>
<path d="M1424.16 1091.1L1512.99 1174.8" stroke="#C2A30D" stroke-opacity="0.82" stroke-width="7"/>
<path d="M1512.99 1091.1L1601.81 1174.8" stroke="#C2A30D" stroke-opacity="0.82" stroke-width="7"/>
<path d="M1690.63 1091.1L1601.81 1174.8" stroke="#C2A30D" stroke-opacity="0.82" stroke-width="7"/>
<path d="M1690.63 1091.1L1779.46 1174.8" stroke="#C2A30D" stroke-opacity="0.82" stroke-width="7"/>
<path d="M1868.28 1091.1L1779.46 1174.8" stroke="#C2A30D" stroke-opacity="0.82" stroke-width="7"/>
<path d="M1957.1 1091.1L1868.28 1174.8" stroke="#C2A30D" stroke-opacity="0.82" stroke-width="7"/>
<path d="M1957.1 1091.1L2045.92 1174.8" stroke="#C2A30D" stroke-opacity="0.82" stroke-width="7"/>
<path d="M2134.75 1091.1L2045.92 1174.8" stroke="#C2A30D" stroke-opacity="0.82" stroke-width="7"/>
<path d="M2223.57 1091.1L2134.75 1174.8" stroke="#C2A30D" stroke-opacity="0.82" stroke-width="7"/>
<path d="M2223.57 1091.1L2312.39 1174.8" stroke="#C2A30D" stroke-opacity="0.82" stroke-width="7"/>
<path d="M2401.22 1091.1L2312.39 1174.8" stroke="#C2A30D" stroke-opacity="0.82" stroke-width="7"/>
<path d="M3 1174.8L91.8228 1258.5" stroke="#C2A30D" stroke-opacity="0.82" stroke-width="7"/>
<path d="M91.8228 1174.8L180.646 1258.5" stroke="#C2A30D" stroke-opacity="0.82" stroke-width="7"/>
<path d="M180.646 1174.8L269.468 1258.5" stroke="#C2A30D" stroke-opacity="0.82" stroke-width="7"/>
<path d="M269.468 1174.8L358.291 1258.5" stroke="#C2A30D" stroke-opacity="0.82" stroke-width="7"/>
<path d="M358.291 1174.8L447.114 1258.5" stroke="#C2A30D" stroke-opacity="0.82" stroke-width="7"/>
<path d="M447.114 1174.8L535.937 1258.5" stroke="#C2A30D" stroke-opacity="0.82" stroke-width="7"/>
<path d="M624.76 1174.8L535.937 1258.5" stroke="#C2A30D" stroke-opacity="0.82" stroke-width="7"/>
<path d="M713.582 1174.8L624.76 1258.5" stroke="#C2A30D" stroke-opacity="0.82" stroke-width="7"/>
<path d="M802.405 1174.8L713.582 1258.5" stroke="#C2A30D" stroke-opacity="0.82" stroke-width="7"/>
<path d="M891.228 1174.8L802.405 1258.5" stroke="#C2A30D" stroke-opacity="0.82" stroke-width="7"/>
<path d="M891.228 1174.8L980.051 1258.5" stroke="#C2A30D" stroke-opacity="0.82" stroke-width="7"/>
<path d="M1068.87 1174.8L980.051 1258.5" stroke="#C2A30D" stroke-opacity="0.82" stroke-width="7"/>
<path d="M1068.87 1174.8L1157.7 1258.5" stroke="#C2A30D" stroke-opacity="0.82" stroke-width="7"/>
<path d="M1157.7 1174.8L1246.52 1258.5" stroke="#C2A30D" stroke-opacity="0.82" stroke-width="7"/>
<path d="M1335.34 1174.8L1246.52 1258.5" stroke="#C2A30D" stroke-opacity="0.82" stroke-width="7"/>
<path d="M1424.16 1174.8L1335.34 1258.5" stroke="#C2A30D" stroke-opacity="0.82" stroke-width="7"/>
<path d="M1424.16 1174.8L1512.99 1258.5" stroke="#C2A30D" stroke-opacity="0.82" stroke-width="7"/>
<path d="M1512.99 1174.8L1601.81 1258.5" stroke="#C2A30D" stroke-opacity="0.82" stroke-width="7"/>
<path d="M1601.81 1174.8L1690.63 1258.5" stroke="#C2A30D" stroke-opacity="0.82" stroke-width="7"/>
<path d="M1779.46 1174.8L1690.63 1258.5" stroke="#C2A30D" stroke-opacity="0.82" stroke-width="7"/>
<path d="M1868.28 1174.8L1779.46 1258.5" stroke="#C2A30D" stroke-opacity="0.82" stroke-width="7"/>
<path d="M1868.28 1174.8L1957.1 1258.5" stroke="#C2A30D" stroke-opacity="0.82" stroke-width="7"/>
<path d="M2045.92 1174.8L1957.1 1258.5" stroke="#C2A30D" stroke-opacity="0.82" stroke-width="7"/>
<path d="M2045.92 1174.8L2134.75 1258.5" stroke="#C2A30D" stroke-opacity="0.82" stroke-width="7"/>
<path d="M2223.57 1174.8L2134.75 1258.5" stroke="#C2A30D" stroke-opacity="0.82" stroke-width="7"/>
<path d="M2312.39 1174.8L2223.57 1258.5" stroke="#C2A30D" stroke-opacity="0.82" stroke-width="7"/>
<path d="M2401.22 1174.8L2312.39 1258.5" stroke="#C2A30D" stroke-opacity="0.82" stroke-width="7"/>
</svg>
