<svg width="512" height="512" viewBox="0 0 512 512" fill="none" xmlns="http://www.w3.org/2000/svg">
<g clip-path="url(#clip0_96_99)">
<path d="M369.116 452.465H175.628V398.884H258.977C275.391 398.884 288.744 385.53 288.744 369.117C288.744 352.704 275.39 339.35 258.977 339.35H145.86C129.446 339.35 116.093 352.704 116.093 369.117V452.466H59.535V285.767H142.884C159.298 285.767 172.651 272.413 172.651 256C172.651 239.587 159.297 226.233 142.884 226.233H59.535V142.887C59.535 126.473 46.181 113.12 29.768 113.12C13.355 113.12 0 126.472 0 142.886V482.232C0 498.646 13.354 512 29.767 512H369.116C385.53 512 398.883 498.646 398.883 482.233C398.883 465.82 385.531 452.465 369.116 452.465Z" fill="#45474B"/>
<path d="M482.233 0H29.767C13.354 0 0 13.354 0 29.767C0 46.18 13.354 59.534 29.767 59.534H113.116V142.883C113.116 159.297 126.47 172.65 142.883 172.65C159.296 172.65 172.65 159.296 172.65 142.883V59.535H339.348V142.884C339.348 159.298 352.702 172.651 369.115 172.651H452.464V226.228H285.767V148.508C285.767 132.094 272.413 118.741 256 118.741C239.587 118.741 226.233 132.095 226.233 148.508V255.996C226.233 272.41 239.587 285.763 256 285.763H339.349V369.112C339.349 385.526 352.703 398.879 369.116 398.879C385.529 398.879 398.883 385.525 398.883 369.112V285.763H452.464V482.233C452.464 498.647 465.818 512 482.231 512C498.644 512 512 498.646 512 482.233V29.767C512 13.354 498.646 0 482.233 0ZM452.465 113.116H398.884V59.535H452.465V113.116Z" fill="#45474B"/>
</g>
<path d="M398.637 152C426.921 152 449.856 174.941 449.856 203.223C449.856 231.512 426.922 254.445 398.637 254.445C370.348 254.445 347.419 231.513 347.419 203.223C347.419 174.941 370.349 152 398.637 152Z" fill="#3290E0" stroke="#B9FAFF" stroke-width="10"/>
<path d="M355.331 271.418C355.653 271.431 355.997 271.493 356.302 271.583C356.553 271.657 356.682 271.722 356.693 271.726L356.674 271.713C368.887 279.243 383.243 283.646 398.637 283.646C414.03 283.646 428.386 279.243 440.6 271.713L440.58 271.726C440.592 271.721 440.722 271.657 440.972 271.583C441.277 271.493 441.621 271.431 441.943 271.418C442.268 271.406 442.471 271.447 442.565 271.478C442.584 271.484 442.597 271.489 442.604 271.492C446.827 275.992 452.065 283.262 456.56 291.288C461.082 299.366 464.585 307.738 465.702 314.432C467.085 322.73 465.872 329.37 463.006 334.746C460.111 340.176 455.323 344.702 448.95 348.345C436.08 355.702 417.535 359 398.637 359C379.739 359 361.194 355.702 348.324 348.345C341.951 344.702 337.163 340.176 334.269 334.746C331.403 329.37 330.189 322.73 331.571 314.432C332.689 307.737 336.191 299.366 340.714 291.288C345.208 283.262 350.445 275.992 354.667 271.492C354.675 271.489 354.688 271.484 354.708 271.478C354.802 271.447 355.006 271.406 355.331 271.418Z" fill="#3290E0" stroke="#B9FAFF" stroke-width="10"/>
<path d="M273 234V171H304.5L399 265.5L304.5 360H273V297H147L147 234H273Z" fill="#62DF4D" stroke="#3AAC38" stroke-width="17"/>
<path d="M117.637 155C145.921 155 168.856 177.941 168.856 206.223C168.856 234.512 145.922 257.445 117.637 257.445C89.3485 257.445 66.4193 234.513 66.4192 206.223C66.4192 177.941 89.3489 155 117.637 155Z" fill="#DA4E20" stroke="#FFD714" stroke-width="10"/>
<path d="M74.3311 274.418C74.6533 274.431 74.9967 274.493 75.3018 274.583C75.5531 274.657 75.6823 274.722 75.6934 274.726L75.6738 274.713C87.887 282.243 102.243 286.646 117.637 286.646C133.03 286.646 147.386 282.243 159.6 274.713L159.58 274.726C159.592 274.721 159.722 274.657 159.972 274.583C160.277 274.493 160.621 274.431 160.943 274.418C161.268 274.406 161.471 274.447 161.565 274.478C161.584 274.484 161.597 274.489 161.604 274.492C165.827 278.992 171.065 286.262 175.56 294.288C180.082 302.366 183.585 310.738 184.702 317.432C186.085 325.73 184.872 332.37 182.006 337.746C179.111 343.176 174.323 347.702 167.95 351.345C155.08 358.702 136.535 362 117.637 362C98.7389 362 80.194 358.702 67.3242 351.345C60.9515 347.702 56.1632 343.176 53.2686 337.746C50.4027 332.37 49.1889 325.73 50.5713 317.432C51.6891 310.737 55.191 302.366 59.7139 294.288C64.208 286.262 69.4454 278.992 73.667 274.492C73.6746 274.489 73.6881 274.484 73.708 274.478C73.8025 274.447 74.006 274.406 74.3311 274.418Z" fill="#DA4E20" stroke="#FFD714" stroke-width="10"/>
<defs>
<clipPath id="clip0_96_99">
<rect width="512" height="512" fill="white"/>
</clipPath>
</defs>
</svg>
